<svg xmlns="http://www.w3.org/2000/svg" width="120" height="112" viewBox="0 0 120 112">
  <g id="Group_25" data-name="Group 25" transform="translate(-4546 -2154)">
    <rect id="Rectangle_128" data-name="Rectangle 128" width="120" height="24" rx="6" transform="translate(4546 2168)" fill="#7e5ff2"/>
    <rect id="Rectangle_129" data-name="Rectangle 129" width="120" height="17" transform="translate(4546 2180)" fill="#7e5ff2"/>
    <rect id="Rectangle_130" data-name="Rectangle 130" width="120" height="65" transform="translate(4546 2189)" fill="#f5f5f5"/>
    <rect id="Rectangle_131" data-name="Rectangle 131" width="120" height="24" rx="6" transform="translate(4546 2242)" fill="#f5f5f5"/>
    <rect id="Rectangle_132" data-name="Rectangle 132" width="12" height="24" rx="4" transform="translate(4566 2154)" fill="#51758d"/>
    <rect id="Rectangle_133" data-name="Rectangle 133" width="12" height="24" rx="4" transform="translate(4634 2154)" fill="#51758d"/>
    <rect id="Rectangle_134" data-name="Rectangle 134" width="3" height="20" rx="1.5" transform="translate(4566 2156)" fill="#2b597f"/>
    <rect id="Rectangle_135" data-name="Rectangle 135" width="3" height="20" rx="1.5" transform="translate(4634 2156)" fill="#2b597f"/>
    <g id="Group_23" data-name="Group 23" transform="translate(185 -27)">
      <rect id="Rectangle_140" data-name="Rectangle 140" width="16" height="16" transform="translate(4377 2225)" fill="#7e5ff2"/>
      <rect id="Rectangle_141" data-name="Rectangle 141" width="16" height="16" transform="translate(4401 2225)" fill="#7e5ff2"/>
      <rect id="Rectangle_142" data-name="Rectangle 142" width="16" height="16" transform="translate(4425 2225)" fill="#7e5ff2"/>
      <rect id="Rectangle_143" data-name="Rectangle 143" width="16" height="16" transform="translate(4449 2225)" fill="#7e5ff2"/>
      <rect id="Rectangle_144" data-name="Rectangle 144" width="16" height="16" transform="translate(4377 2245)" fill="#7e5ff2"/>
      <rect id="Rectangle_145" data-name="Rectangle 145" width="16" height="16" transform="translate(4401 2245)" fill="#7e5ff2"/>
      <rect id="Rectangle_146" data-name="Rectangle 146" width="16" height="16" transform="translate(4425 2245)" fill="#7e5ff2"/>
      <rect id="Rectangle_147" data-name="Rectangle 147" width="16" height="16" transform="translate(4449 2245)" fill="#e6e6e6"/>
      <rect id="Rectangle_148" data-name="Rectangle 148" width="16" height="16" transform="translate(4377 2265)" fill="#e6e6e6"/>
      <rect id="Rectangle_149" data-name="Rectangle 149" width="16" height="16" transform="translate(4401 2265)" fill="#e6e6e6"/>
      <rect id="Rectangle_150" data-name="Rectangle 150" width="16" height="16" transform="translate(4425 2265)" fill="#e6e6e6"/>
      <rect id="Rectangle_151" data-name="Rectangle 151" width="16" height="16" transform="translate(4449 2265)" fill="#e6e6e6"/>
    </g>
    <rect id="Rectangle_160" data-name="Rectangle 160" width="5" height="71" transform="translate(4546 2189)" fill="#e6e6e6"/>
  </g>
</svg>
