<svg xmlns="http://www.w3.org/2000/svg" width="3144.082" height="422.282" viewBox="0 0 3144.082 422.282">
  <g id="Group_36" data-name="Group 36" transform="translate(4792.076 -2568.138)">
    <g id="Group_35" data-name="Group 35" transform="translate(-4792 2568.632)">
      <path id="Path_35" data-name="Path 35" d="M96,2484" transform="translate(-96 -2484)" fill="none" stroke="#707070" stroke-width="1"/>
      <path id="Path_36" data-name="Path 36" d="M0,0S1561.994,241.434,2076.376,269.5,3143.769,0,3143.769,0" fill="none" stroke="#707070" stroke-width="1"/>
      <path id="Path_37" data-name="Path 37" d="M86.285-2.559l81.053,142.314-172.46,7.6Z" transform="translate(273.063 190.577) rotate(-169)" fill="#7e5ff2"/>
      <path id="Path_38" data-name="Path 38" d="M86.285-2.559l81.053,142.314-172.46,7.6Z" transform="translate(552.313 231.444) rotate(-169)" fill="#7e5ff2"/>
      <path id="Path_39" data-name="Path 39" d="M86.844-2.575,167.9,139.738-5.155,148.32Z" transform="translate(852.691 275.2) rotate(-169)" fill="#7e5ff2"/>
      <path id="Path_40" data-name="Path 40" d="M89.242-2.646l79.973,142.988L-5.239,150.728Z" transform="translate(1155.654 318.635) rotate(-169)" fill="#7e5ff2"/>
      <path id="Path_41" data-name="Path 41" d="M89.885-2.665l83.459,145.815L-5.391,155.12Z" transform="translate(1456.884 361.979) rotate(-169)" fill="#7e5ff2"/>
      <path id="Path_42" data-name="Path 42" d="M91.152-2.7l80.511,149.331L-5.611,161.436Z" transform="translate(1780.14 405.527) rotate(-169)" fill="#7e5ff2"/>
      <path id="Path_43" data-name="Path 43" d="M87.268-1.431l84.059,144.306L-2.9,149.64Z" transform="matrix(-0.995, -0.105, 0.105, -0.995, 2095.627, 420.062)" fill="#7e5ff2"/>
      <path id="Path_44" data-name="Path 44" d="M86.817,2.12l93.356,153.04-175.9-6.313Z" transform="translate(2444.709 393.75) rotate(171)" fill="#7e5ff2"/>
      <path id="Path_45" data-name="Path 45" d="M85.736,4.419l94.753,158.249L8.846,150.537Z" transform="matrix(-0.94, 0.342, -0.342, -0.94, 2792.18, 307.811)" fill="#7e5ff2"/>
      <path id="Path_46" data-name="Path 46" d="M74.293,4.31,168.465,157.2l-158.312-1.79Z" transform="translate(3080.626 203.002) rotate(157)" fill="#7e5ff2"/>
      <path id="Path_47" data-name="Path 47" d="M0,0S1561.994,241.434,2076.376,269.5,3143.769,0,3143.769,0" fill="none" stroke="#707070" stroke-width="1"/>
      <path id="Path_48" data-name="Path 48" d="M86.285-2.559l81.053,142.314-172.46,7.6Z" transform="translate(273.063 190.577) rotate(-169)" fill="#7e5ff2"/>
      <path id="Path_49" data-name="Path 49" d="M86.285-2.559l81.053,142.314-172.46,7.6Z" transform="translate(552.313 231.444) rotate(-169)" fill="#7e5ff2"/>
      <path id="Path_50" data-name="Path 50" d="M86.844-2.575,167.9,139.738-5.155,148.32Z" transform="translate(852.691 275.2) rotate(-169)" fill="#7e5ff2"/>
      <path id="Path_51" data-name="Path 51" d="M89.242-2.646l79.973,142.988L-5.239,150.728Z" transform="translate(1155.654 318.635) rotate(-169)" fill="#7e5ff2"/>
      <path id="Path_52" data-name="Path 52" d="M89.885-2.665l83.459,145.815L-5.391,155.12Z" transform="translate(1456.884 361.979) rotate(-169)" fill="#7e5ff2"/>
      <path id="Path_53" data-name="Path 53" d="M91.152-2.7l80.511,149.331L-5.611,161.436Z" transform="translate(1780.14 405.527) rotate(-169)" fill="#7e5ff2"/>
      <path id="Path_54" data-name="Path 54" d="M87.268-1.431l84.059,144.306L-2.9,149.64Z" transform="matrix(-0.995, -0.105, 0.105, -0.995, 2095.627, 420.062)" fill="#7e5ff2"/>
      <path id="Path_55" data-name="Path 55" d="M86.817,2.12l93.356,153.04-175.9-6.313Z" transform="translate(2444.709 393.75) rotate(171)" fill="#7e5ff2"/>
      <path id="Path_56" data-name="Path 56" d="M85.736,4.419l94.753,158.249L8.846,150.537Z" transform="matrix(-0.94, 0.342, -0.342, -0.94, 2792.18, 307.811)" fill="#7e5ff2"/>
      <path id="Path_57" data-name="Path 57" d="M74.293,4.31,168.465,157.2l-158.312-1.79Z" transform="translate(3080.626 203.002) rotate(157)" fill="#7e5ff2"/>
    </g>
  </g>
</svg>
